<svg xmlns="http://www.w3.org/2000/svg" height="512pt" version="1.1" viewBox="0 0 512 512" width="512pt">
<g id="surface1">
<path d="M 437.019531 74.980469 C 388.667969 26.628906 324.378906 0 256 0 C 187.621094 0 123.332031 26.628906 74.980469 74.980469 C 26.628906 123.332031 0 187.621094 0 256 C 0 324.378906 26.628906 388.667969 74.980469 437.019531 C 123.332031 485.371094 187.621094 512 256 512 C 324.378906 512 388.667969 485.371094 437.019531 437.019531 C 485.371094 388.667969 512 324.378906 512 256 C 512 187.621094 485.371094 123.332031 437.019531 74.980469 Z M 318.644531 124.894531 C 321.433594 122.097656 325.292969 120.496094 329.246094 120.496094 C 333.195312 120.496094 337.066406 122.097656 339.855469 124.894531 C 342.644531 127.6875 344.246094 131.546875 344.246094 135.496094 C 344.246094 139.445312 342.644531 143.316406 339.855469 146.105469 C 337.066406 148.894531 333.195312 150.496094 329.246094 150.496094 C 325.304688 150.496094 321.433594 148.894531 318.644531 146.105469 C 315.855469 143.316406 314.246094 139.445312 314.246094 135.496094 C 314.242188 131.546875 315.851562 127.6875 318.644531 124.894531 Z M 281.050781 120.5 C 289.332031 120.5 296.050781 127.214844 296.050781 135.5 C 296.050781 153.808594 310.941406 168.703125 329.246094 168.703125 C 347.554688 168.703125 362.449219 153.808594 362.449219 135.5 C 362.449219 127.214844 369.164062 120.5 377.449219 120.5 C 385.730469 120.5 392.449219 127.214844 392.449219 135.5 C 392.449219 170.351562 364.097656 198.703125 329.246094 198.703125 C 294.398438 198.703125 266.050781 170.347656 266.050781 135.5 C 266.050781 127.214844 272.765625 120.5 281.050781 120.5 Z M 390.03125 365.933594 C 373.308594 382.65625 351.03125 391.535156 328.328125 391.539062 C 317.277344 391.539062 306.125 389.433594 295.457031 385.109375 C 287.777344 381.996094 284.078125 373.25 287.191406 365.570312 C 290.304688 357.894531 299.050781 354.195312 306.730469 357.308594 C 328.121094 365.984375 352.496094 361.042969 368.816406 344.71875 C 379.640625 333.898438 385.601562 319.507812 385.601562 304.199219 C 385.601562 288.894531 379.640625 274.507812 368.816406 263.683594 C 346.476562 241.34375 310.125 241.34375 287.78125 263.683594 C 287.207031 264.257812 286.59375 264.78125 285.945312 265.246094 C 280.257812 270.34375 273.484375 273.851562 266.167969 275.546875 C 269.296875 284.523438 271 294.167969 271 304.203125 C 271 352.339844 231.839844 391.503906 183.699219 391.503906 C 135.5625 391.503906 96.398438 352.339844 96.398438 304.203125 C 96.398438 295.917969 103.113281 289.203125 111.398438 289.203125 C 119.683594 289.203125 126.398438 295.917969 126.398438 304.203125 C 126.398438 335.796875 152.105469 361.503906 183.699219 361.503906 C 215.296875 361.503906 241 335.796875 241 304.203125 C 241 272.605469 215.296875 246.902344 183.699219 246.902344 C 175.414062 246.902344 168.699219 240.183594 168.699219 231.902344 C 168.699219 223.617188 175.414062 216.902344 183.699219 216.902344 C 202.007812 216.902344 216.898438 202.007812 216.898438 183.703125 C 216.898438 165.394531 202.007812 150.5 183.699219 150.5 C 165.394531 150.5 150.5 165.394531 150.5 183.703125 C 150.5 191.984375 143.785156 198.703125 135.5 198.703125 C 127.214844 198.703125 120.5 191.984375 120.5 183.703125 C 120.5 148.851562 148.851562 120.5 183.699219 120.5 C 218.546875 120.5 246.898438 148.851562 246.898438 183.703125 C 246.898438 201.394531 239.589844 217.414062 227.832031 228.898438 C 233.835938 232.429688 239.371094 236.664062 244.347656 241.480469 C 244.65625 241.742188 244.960938 242.003906 245.253906 242.296875 C 248.097656 245.140625 251.882812 246.710938 255.910156 246.710938 C 259.933594 246.710938 263.722656 245.140625 266.566406 242.296875 C 267.078125 241.78125 267.621094 241.3125 268.191406 240.886719 C 302.34375 208.441406 356.527344 208.96875 390.03125 242.46875 C 406.519531 258.957031 415.601562 280.878906 415.601562 304.199219 C 415.601562 327.519531 406.519531 349.441406 390.03125 365.933594 Z M 390.03125 365.933594 " style=" stroke:none;fill-rule:nonzero;fill:rgb(0%,0%,0%);fill-opacity:1;" />
</g>
</svg>